<svg xmlns="http://www.w3.org/2000/svg" xml:space="preserve" id="Layer_1" x="0" y="0" style="enable-background:new 0 0 288 288" version="1.1" viewBox="0 0 288 288"><style>.st3{fill:#fff}</style><switch><g><linearGradient id="SVGID_1_" x1="122.774" x2="122.774" y1="30.816" y2="231.028" gradientUnits="userSpaceOnUse"><stop offset="0" style="stop-color:#ff4300"/><stop offset="1" style="stop-color:red;stop-opacity:0"/></linearGradient><path d="M182.8 132.1c-.7 0-1.3-.3-1.7-.8-41-45-62.7-64.6-129.2-92.1-1.1-.5-1.7-1.6-1.4-2.8.3-1.1 1.4-1.9 2.6-1.7 85.4 11.5 141.2 92.2 141.8 93 .5.7.5 1.6.2 2.4-.4.8-1.1 1.3-2 1.3l-10.1.7h-.2z" style="fill:url(#SVGID_1_)"/><linearGradient id="SVGID_00000081615676403416529940000011614537616001067142_" x1="148" x2="148" y1="30.816" y2="231.028" gradientUnits="userSpaceOnUse"><stop offset="0" style="stop-color:#ff4300"/><stop offset="1" style="stop-color:red;stop-opacity:0"/></linearGradient><path d="M273.9 212c-.3-1-1.2-1.7-2.3-1.7-.1 0-6 0-19.1-4.9-11.7-4.4-25.7-16.9-29.1-20.3.1 0 .3-.1.5-.1.4-.1.8-.3 1.1-.5.9-.8 1.4-1.8 1.4-3 .2-4.5-6.2-11-6.9-11.7-1-1-6.5-9.5-18.7-30.2l-.3-.6c-.1-.1-.1-.2-.2-.3-.3-.6-.8-1.6-2.3-2.5l-.6-.3c-3.5-1.1-14.7.6-19.6 1.4-.7-.9-1.8-2.3-2.2-2.9-.4-.5-.7-.9-.8-1-3.5-4.2-7.4-8.2-11.6-12.1-12.9-12.1-26.6-20.9-40.6-26-12-4.4-22.5-15.7-25-27.1-.2-.9-.4-1.9-.4-2.7 0-1.1-.8-2-1.8-2.3-1.1-.2-2.2.3-2.6 1.3-4.1 8.4-1.5 20 .3 25.9-26.4-2.6-35.8-22.2-36.2-23.1-.4-1-1.4-1.5-2.5-1.3-1 .2-1.8 1-2 2-2.1 15.6 5 25.4 9.7 30-20.8 3.6-36-13-36.2-13.2-.6-.7-1.6-1-2.5-.7-.9.3-1.5 1-1.6 2-.1.7-1.6 15.7 20.1 27.4-11.5 11.1-17.8 24.8-18.7 40.7-1.1 18.4 5.4 37.2 13.7 50.9-1 1.1-1.7 2.5-2.1 4-.6 2.4-.2 4.8 1.1 6.9 1.3 2.1 3.3 3.6 5.7 4.1.7.2 1.4.3 2.2.3 1.7 0 3.3-.5 4.8-1.4-.3.2-.5.3-.8.4 5 6.1 8.5 12.1 10.8 17.3-1.8 1.3-3.1 3.1-3.6 5.3-.6 2.4-.2 4.8 1.1 6.9 1.3 2.1 3.3 3.6 5.7 4.1.7.2 1.4.3 2.1.3 4.1 0 7.8-2.7 8.9-6.8H137c.2.8.6 1.7 1 2.4 1.3 2.1 3.3 3.6 5.7 4.1.7.2 1.4.3 2.1.3 4.1 0 7.9-2.8 8.9-7 .6-2.4.2-4.8-1.1-6.9-1.3-2.1-3.3-3.6-5.7-4.1-1.6-.4-3.1-.3-4.6.1-7.5-11.4-20.3-25.7-35.5-37.7.1-.3.2-.7.3-1.1.6-2.4.2-4.8-1.1-6.9-1.3-2.1-3.3-3.6-5.7-4.1-2.4-.6-4.8-.2-6.9 1.1-.4.2-.7.5-1 .7-15.8-11-20.3-27.1-17.6-37.8.4-1.7 1-3.2 1.7-4.6.5.2 1.1.5 1.7.6.7.2 1.4.3 2.1.3 4.1 0 7.9-2.8 8.9-7 .3-1.4.3-2.8 0-4.1 2-.6 4.2-1 6.5-1.2 27-2 55.1 19.2 60.3 23.3-.2 8.3.3 16.5 6.4 24 4.3 5.4 16.3 10.8 25.9 15.1 4 1.8 7.5 3.4 9.5 4.5 2.8 1.6 27.7 16.2 42.7 35.7.5.6 1.3 1 2.1.9.8-.1 1.5-.5 1.9-1.2 2-3.7 17.7-14.8 27.2-21 1.1-.8 1.5-1.9 1.2-2.9zM40 202.7s.1 0 0 0c.1 0 0 0 0 0zm20.1 33.1c.1 0 .1-.1.2-.1-.1 0-.1.1-.2.1zm.9-.4h.2-.2zm12.1 9.8v-.3.3zm.1-1.1v-.3.3zm-.1-1.3v.2-.2zm63.6 1.2v.3-.3zm.1 1.2v.2-.2zm0-1.9v-.3.3zm5.3-7.6c.1 0 .1-.1.2-.1 0 .1-.1.1-.2.1zm-66.9-92.6c0 .1 0 .1 0 0 0 .1 0 .1 0 0zm1.1 1 .1.1s0-.1-.1-.1zm13.3-11.8c.1 0 .1 0 0 0 .1 0 .1 0 0 0zm-.6-1.1c0 .1.1.1.1.2 0 0-.1-.1-.1-.2zM62.1 235.1z" style="fill:url(#SVGID_00000081615676403416529940000011614537616001067142_)"/><g style="opacity:.9"><path d="M182.8 132.1c-.7 0-1.3-.3-1.7-.8-41-45-62.7-64.6-129.2-92.1-1.1-.5-1.7-1.6-1.4-2.8.3-1.1 1.4-1.9 2.6-1.7 85.4 11.5 141.2 92.2 141.8 93 .5.7.5 1.6.2 2.4-.4.8-1.1 1.3-2 1.3l-10.1.7h-.2zM75.3 44.3c50.7 23.2 72.2 43.3 108.4 83l4.7-.3c-10.3-13.7-52.1-64.8-113.1-82.7zM211.8 176.9c0-.2-.1-.3-.2-.5-1.8-2.2-3.9-5.9-5.8-9-1-1.6-1.9-3-2.7-4.1-.4-.5-.8-1-1.3-1.4-.4-.3-.9-.7-1.6-.7-.3 0-.6.1-.9.3-.3.2-.5.4-.6.7-.4.8-.6 1.8-.6 3 0 2.1.5 4.6 1.9 6.4.5.7 1.3 1.4 2.1 2.1 2.1 1.8 4.9 3.5 5.6 3.9l.1.1c.1.1.1.4.2.7.1.4.4.7.8.8.6.1 1.1.2 1.5.2.4 0 .8 0 1.2-.4.2-.2.3-.4.4-.6.1-.2.1-.4.1-.6-.1-.3-.2-.6-.2-.9zM66.1 235.2c-2.4-.6-4.8-.2-6.9 1.1-2.1 1.3-3.6 3.3-4.1 5.7-.6 2.4-.2 4.8 1.1 6.9 1.3 2.1 3.3 3.6 5.7 4.1.7.2 1.4.3 2.1.3 4.1 0 7.9-2.8 8.9-7 .6-2.4.2-4.8-1.1-6.9-1.3-2.2-3.3-3.7-5.7-4.2zM107.2 189.6c-1.3-2.1-3.3-3.6-5.7-4.1-2.4-.6-4.8-.2-6.9 1.1-2.1 1.3-3.6 3.3-4.1 5.7-.6 2.4-.2 4.8 1.1 6.9 1.3 2.1 3.3 3.6 5.7 4.1.7.2 1.4.3 2.2.3 1.7 0 3.3-.5 4.8-1.4 2.1-1.3 3.6-3.3 4.1-5.7.4-2.3 0-4.8-1.2-6.9zM145.9 253.3c-.7 0-1.4-.1-2.1-.3-2.4-.6-4.4-2-5.7-4.1-1.3-2.1-1.7-4.6-1.1-6.9.6-2.4 2-4.4 4.1-5.7 2.1-1.3 4.5-1.7 6.9-1.1 2.4.6 4.4 2 5.7 4.1 1.3 2.1 1.7 4.6 1.1 6.9-1 4.2-4.8 7.1-8.9 7.1zm-1.1-4.9c2.4.6 4.8-.9 5.4-3.3.3-1.2.1-2.4-.5-3.4s-1.6-1.7-2.8-2c-1.2-.3-2.4-.1-3.4.5s-1.7 1.6-2 2.8c-.3 1.2-.1 2.4.5 3.4.7 1 1.7 1.8 2.8 2zM43.9 220.2c-.7 0-1.4-.1-2.2-.3-2.4-.6-4.4-2-5.7-4.1-1.3-2.1-1.7-4.6-1.1-6.9.6-2.4 2-4.4 4.1-5.7 2.1-1.3 4.6-1.7 6.9-1.1 2.4.6 4.4 2 5.7 4.1 1.3 2.1 1.7 4.6 1.1 6.9-.6 2.4-2 4.4-4.1 5.7-1.4 1-3 1.4-4.7 1.4zm0-13.6c-.8 0-1.6.2-2.3.7-1 .6-1.7 1.6-2 2.8-.3 1.2-.1 2.4.5 3.4s1.6 1.7 2.8 2c1.2.3 2.4.1 3.4-.5s1.7-1.6 2-2.8c.3-1.2.1-2.4-.5-3.4s-1.6-1.7-2.8-2c-.4-.2-.8-.2-1.1-.2zM81.6 145.7c-.7 0-1.4-.1-2.1-.3-4.9-1.2-8-6.1-6.8-11.1.6-2.4 2-4.4 4.1-5.7 2.1-1.3 4.6-1.7 6.9-1.1 4.9 1.2 8 6.1 6.8 11.1-1 4.3-4.8 7.1-8.9 7.1zm-1.1-4.8c2.4.6 4.8-.9 5.4-3.3.6-2.4-.9-4.8-3.3-5.4-1.2-.3-2.4-.1-3.4.5s-1.7 1.6-2 2.8c-.6 2.4.9 4.8 3.3 5.4z" class="st3"/><path d="M139.4 237.7c.5-.5 1.1-1 1.7-1.4.7-.4 1.5-.8 2.3-1-7.5-11.4-20.3-25.7-35.5-37.7-.6 1.5-1.5 2.8-2.7 3.8 14.6 11.6 27 25.3 34.2 36.3z" class="st3"/><path d="M72.9 246.4H137c-.4-1.5-.4-3 0-4.5 0-.1.1-.1.1-.2h-46c-6.1-7-34.6-41.5-30.8-71.7 1.1-9 5.1-17 11.7-23.6-.2.6-.4 1.3-.6 2-3.8 14.8 4.2 32.1 19.4 42.8.6-1.5 1.5-2.8 2.8-3.8-15.8-11-20.3-27.2-17.6-37.8.4-1.7 1-3.2 1.7-4.6-1.9-.9-3.3-2.3-4.3-4.1-9.4 7.8-14.9 17.5-16.3 28.8-2.3 18.4 6.8 38 14.8 51.2 5.7 9.3 11.6 16.8 15 20.9h-14c.4 1.5.4 3 0 4.5v.1zM48.7 218.9c-.3.2-.5.3-.8.4 5 6.2 8.5 12.2 10.8 17.4.2-.1.3-.3.5-.4 1.2-.7 2.5-1.2 3.9-1.3-2.5-5.6-6.2-12.1-11.7-18.7-.7 1-1.6 1.9-2.7 2.6z" class="st3"/><path d="M273.9 212c-.3-1-1.2-1.7-2.3-1.7-.1 0-6 0-19.1-4.9-11.7-4.4-25.7-16.9-29.1-20.3.1 0 .3-.1.5-.1.4-.1.8-.3 1.1-.5.9-.8 1.4-1.8 1.4-3 .2-4.5-6.2-11-6.9-11.7-1-1-6.5-9.5-18.7-30.2l-.3-.6c-.1-.1-.1-.2-.2-.3-.3-.6-.8-1.6-2.3-2.5l-.6-.3c-3.5-1.1-14.7.6-19.6 1.4-.7-.9-1.8-2.3-2.2-2.9-.4-.5-.7-.9-.8-1-3.5-4.2-7.4-8.2-11.6-12.1-12.9-12.1-26.6-20.9-40.6-26-12-4.4-22.5-15.7-25-27.1-.2-.9-.4-1.9-.4-2.7 0-1.1-.8-2-1.8-2.3-1.1-.2-2.2.3-2.6 1.3-4.1 8.4-1.5 20 .3 25.9-26.4-2.6-35.8-22.2-36.2-23.1-.4-1-1.4-1.5-2.5-1.3-1 .2-1.8 1-2 2-2.1 15.6 5 25.4 9.7 30-20.8 3.6-36-13-36.2-13.2-.6-.7-1.6-1-2.5-.7-.9.3-1.5 1-1.6 2-.1.7-1.6 15.7 20.1 27.4-11.5 11.1-17.8 24.8-18.7 40.7-1.1 18.4 5.4 37.2 13.7 50.9.6-.7 1.2-1.3 2-1.7.6-.4 1.2-.7 1.9-.9-7.8-13-13.9-30.7-12.9-48.1.9-15.7 7.5-29.1 19.6-39.7.6-.5.9-1.3.8-2.1-.1-.8-.6-1.5-1.3-1.8-12.7-6.1-17.6-13.2-19.4-18.2C35 98.5 49.7 107 68 101.4c.9-.3 1.5-1 1.6-1.9.1-.9-.3-1.8-1.1-2.3.1-.2-10.3-6.9-11.5-21.3 5.6 7.2 17.1 17.8 37.3 19.2h2.2c.8 0 1.5-.4 1.9-1 .4-.6.5-1.5.3-2.2-1.5-3.8-3.2-10.1-3.3-16 4.7 10.4 14.7 19.8 25.7 23.8 13.4 4.9 26.5 13.3 39 25 4 3.8 7.8 7.7 11.2 11.7.1.1.3.4.6.8 3.1 4.2 3.9 5.3 5.6 5 7.3-1.3 15.8-2.3 18.2-1.8.2.2.2.3.4.6.1.2.2.4.3.5l.3.5c11.2 19 17.8 29.5 19.4 31.2 2.8 2.8 5.1 6.2 5.5 7.7-1.4.5-2.4 1.2-3 2.3-.4.7-.7 2 0 3.6.8 1.9 18 17.9 32.2 23.1 6.2 2.3 10.9 3.6 14.3 4.3-6.6 4.4-16.9 11.7-21.5 16.6-15.7-19.1-39.4-33-42.2-34.6-2.3-1.3-5.8-2.9-10-4.7-8.7-3.9-20.5-9.2-24.1-13.7-5.3-6.7-5.6-13.9-5.3-22.1 0-.7-.3-1.4-.8-1.9-.3-.3-8.3-7-20.2-13.4-11.1-6-27.7-12.9-44.4-11.7-3 .2-5.8.8-8.4 1.7 1.1 1.2 1.8 2.7 2.2 4.2 2-.6 4.2-1 6.5-1.2 27-2 55.1 19.2 60.3 23.3-.2 8.3.3 16.5 6.4 24 4.3 5.4 16.3 10.8 25.9 15.1 4 1.8 7.5 3.4 9.5 4.5 2.8 1.6 27.7 16.2 42.7 35.7.5.6 1.3 1 2.1.9.8-.1 1.5-.5 1.9-1.2 2-3.7 17.7-14.8 27.2-21 .9-.6 1.3-1.7 1-2.7z" class="st3"/></g></g></switch></svg>